<mxfile host="app.diagrams.net" modified="2023-06-17T16:17:07.860Z" agent="Mozilla/5.0 (Windows NT 10.0; Win64; x64) AppleWebKit/537.36 (KHTML, like Gecko) Chrome/114.0.0.0 Safari/537.36" etag="R3c4aDJtqHpuq0j-ckhN" version="21.3.8" type="github">
  <diagram name="Trang-1" id="kqEvBP3gmFzNLYqOB89x">
    <mxGraphModel dx="1434" dy="756" grid="1" gridSize="10" guides="1" tooltips="1" connect="1" arrows="1" fold="1" page="1" pageScale="1" pageWidth="827" pageHeight="1169" math="0" shadow="0">
      <root>
        <mxCell id="0" />
        <mxCell id="1" parent="0" />
        <mxCell id="eLs_Z7yCT-JtaALUKhyU-36" value="Actor" style="shape=umlLifeline;perimeter=lifelinePerimeter;whiteSpace=wrap;html=1;container=1;dropTarget=0;collapsible=0;recursiveResize=0;outlineConnect=0;portConstraint=eastwest;newEdgeStyle={&quot;edgeStyle&quot;:&quot;elbowEdgeStyle&quot;,&quot;elbow&quot;:&quot;vertical&quot;,&quot;curved&quot;:0,&quot;rounded&quot;:0};" vertex="1" parent="1">
          <mxGeometry x="80" y="80" width="120" height="440" as="geometry" />
        </mxCell>
        <mxCell id="eLs_Z7yCT-JtaALUKhyU-21" value="Đăng nhập" style="shape=umlFrame;whiteSpace=wrap;html=1;pointerEvents=0;width=160;height=40;" vertex="1" parent="1">
          <mxGeometry width="880" height="760" as="geometry" />
        </mxCell>
        <mxCell id="eLs_Z7yCT-JtaALUKhyU-37" value="GUI Đăng Nhập" style="shape=umlLifeline;perimeter=lifelinePerimeter;whiteSpace=wrap;html=1;container=1;dropTarget=0;collapsible=0;recursiveResize=0;outlineConnect=0;portConstraint=eastwest;newEdgeStyle={&quot;edgeStyle&quot;:&quot;elbowEdgeStyle&quot;,&quot;elbow&quot;:&quot;vertical&quot;,&quot;curved&quot;:0,&quot;rounded&quot;:0};" vertex="1" parent="1">
          <mxGeometry x="280" y="80" width="120" height="440" as="geometry" />
        </mxCell>
        <mxCell id="eLs_Z7yCT-JtaALUKhyU-54" value="" style="html=1;points=[];perimeter=orthogonalPerimeter;outlineConnect=0;targetShapes=umlLifeline;portConstraint=eastwest;newEdgeStyle={&quot;edgeStyle&quot;:&quot;elbowEdgeStyle&quot;,&quot;elbow&quot;:&quot;vertical&quot;,&quot;curved&quot;:0,&quot;rounded&quot;:0};" vertex="1" parent="eLs_Z7yCT-JtaALUKhyU-37">
          <mxGeometry x="55" y="80" width="10" height="40" as="geometry" />
        </mxCell>
        <mxCell id="eLs_Z7yCT-JtaALUKhyU-60" value="" style="html=1;points=[];perimeter=orthogonalPerimeter;outlineConnect=0;targetShapes=umlLifeline;portConstraint=eastwest;newEdgeStyle={&quot;edgeStyle&quot;:&quot;elbowEdgeStyle&quot;,&quot;elbow&quot;:&quot;vertical&quot;,&quot;curved&quot;:0,&quot;rounded&quot;:0};" vertex="1" parent="eLs_Z7yCT-JtaALUKhyU-37">
          <mxGeometry x="55" y="160" width="10" height="40" as="geometry" />
        </mxCell>
        <mxCell id="eLs_Z7yCT-JtaALUKhyU-38" value="Controller" style="shape=umlLifeline;perimeter=lifelinePerimeter;whiteSpace=wrap;html=1;container=1;dropTarget=0;collapsible=0;recursiveResize=0;outlineConnect=0;portConstraint=eastwest;newEdgeStyle={&quot;edgeStyle&quot;:&quot;elbowEdgeStyle&quot;,&quot;elbow&quot;:&quot;vertical&quot;,&quot;curved&quot;:0,&quot;rounded&quot;:0};" vertex="1" parent="1">
          <mxGeometry x="480" y="80" width="120" height="440" as="geometry" />
        </mxCell>
        <mxCell id="eLs_Z7yCT-JtaALUKhyU-62" value="" style="html=1;points=[];perimeter=orthogonalPerimeter;outlineConnect=0;targetShapes=umlLifeline;portConstraint=eastwest;newEdgeStyle={&quot;edgeStyle&quot;:&quot;elbowEdgeStyle&quot;,&quot;elbow&quot;:&quot;vertical&quot;,&quot;curved&quot;:0,&quot;rounded&quot;:0};" vertex="1" parent="eLs_Z7yCT-JtaALUKhyU-38">
          <mxGeometry x="55" y="200" width="10" height="40" as="geometry" />
        </mxCell>
        <mxCell id="eLs_Z7yCT-JtaALUKhyU-40" value="Database" style="shape=umlLifeline;perimeter=lifelinePerimeter;whiteSpace=wrap;html=1;container=1;dropTarget=0;collapsible=0;recursiveResize=0;outlineConnect=0;portConstraint=eastwest;newEdgeStyle={&quot;edgeStyle&quot;:&quot;elbowEdgeStyle&quot;,&quot;elbow&quot;:&quot;vertical&quot;,&quot;curved&quot;:0,&quot;rounded&quot;:0};" vertex="1" parent="1">
          <mxGeometry x="680" y="80" width="120" height="440" as="geometry" />
        </mxCell>
        <mxCell id="eLs_Z7yCT-JtaALUKhyU-67" value="" style="html=1;points=[];perimeter=orthogonalPerimeter;outlineConnect=0;targetShapes=umlLifeline;portConstraint=eastwest;newEdgeStyle={&quot;edgeStyle&quot;:&quot;elbowEdgeStyle&quot;,&quot;elbow&quot;:&quot;vertical&quot;,&quot;curved&quot;:0,&quot;rounded&quot;:0};" vertex="1" parent="eLs_Z7yCT-JtaALUKhyU-40">
          <mxGeometry x="60" y="280" width="10" height="40" as="geometry" />
        </mxCell>
        <mxCell id="eLs_Z7yCT-JtaALUKhyU-68" value="Kiểm tra thông tin" style="html=1;align=left;spacingLeft=2;endArrow=block;rounded=0;edgeStyle=orthogonalEdgeStyle;curved=0;rounded=0;" edge="1" target="eLs_Z7yCT-JtaALUKhyU-67" parent="eLs_Z7yCT-JtaALUKhyU-40">
          <mxGeometry relative="1" as="geometry">
            <mxPoint x="65" y="260" as="sourcePoint" />
            <Array as="points">
              <mxPoint x="95" y="290" />
            </Array>
          </mxGeometry>
        </mxCell>
        <mxCell id="eLs_Z7yCT-JtaALUKhyU-55" value="Gửi yêu cầu đăng nhập" style="html=1;verticalAlign=bottom;endArrow=block;edgeStyle=elbowEdgeStyle;elbow=vertical;curved=0;rounded=0;" edge="1" target="eLs_Z7yCT-JtaALUKhyU-54" parent="1" source="eLs_Z7yCT-JtaALUKhyU-36">
          <mxGeometry relative="1" as="geometry">
            <mxPoint x="260" y="210" as="sourcePoint" />
            <Array as="points">
              <mxPoint x="290" y="160" />
            </Array>
          </mxGeometry>
        </mxCell>
        <mxCell id="eLs_Z7yCT-JtaALUKhyU-56" value="Yêu cầu nhập email và mật khẩu" style="html=1;verticalAlign=bottom;endArrow=open;dashed=1;endSize=8;edgeStyle=elbowEdgeStyle;elbow=vertical;curved=0;rounded=0;" edge="1" source="eLs_Z7yCT-JtaALUKhyU-54" parent="1" target="eLs_Z7yCT-JtaALUKhyU-57">
          <mxGeometry relative="1" as="geometry">
            <mxPoint x="260" y="285" as="targetPoint" />
            <Array as="points">
              <mxPoint x="230" y="200" />
              <mxPoint x="300" y="240" />
            </Array>
          </mxGeometry>
        </mxCell>
        <mxCell id="eLs_Z7yCT-JtaALUKhyU-57" value="" style="html=1;points=[];perimeter=orthogonalPerimeter;outlineConnect=0;targetShapes=umlLifeline;portConstraint=eastwest;newEdgeStyle={&quot;edgeStyle&quot;:&quot;elbowEdgeStyle&quot;,&quot;elbow&quot;:&quot;vertical&quot;,&quot;curved&quot;:0,&quot;rounded&quot;:0};" vertex="1" parent="1">
          <mxGeometry x="135" y="240" width="10" height="40" as="geometry" />
        </mxCell>
        <mxCell id="eLs_Z7yCT-JtaALUKhyU-61" value="Nhập email và mật khẩu" style="html=1;verticalAlign=bottom;endArrow=block;edgeStyle=elbowEdgeStyle;elbow=vertical;curved=0;rounded=0;" edge="1" parent="1" target="eLs_Z7yCT-JtaALUKhyU-60" source="eLs_Z7yCT-JtaALUKhyU-57">
          <mxGeometry relative="1" as="geometry">
            <mxPoint x="140" y="320" as="sourcePoint" />
            <Array as="points">
              <mxPoint x="210" y="240" />
              <mxPoint x="250" y="280" />
              <mxPoint x="290" y="320" />
            </Array>
          </mxGeometry>
        </mxCell>
        <mxCell id="eLs_Z7yCT-JtaALUKhyU-69" value="Trả về kết quả&amp;nbsp;" style="html=1;verticalAlign=bottom;endArrow=block;edgeStyle=elbowEdgeStyle;elbow=vertical;curved=0;rounded=0;" edge="1" parent="1" source="eLs_Z7yCT-JtaALUKhyU-40" target="eLs_Z7yCT-JtaALUKhyU-37">
          <mxGeometry relative="1" as="geometry">
            <mxPoint x="555" y="370" as="sourcePoint" />
            <Array as="points">
              <mxPoint x="630" y="440" />
              <mxPoint x="680" y="530" />
              <mxPoint x="670" y="440" />
              <mxPoint x="620" y="480" />
              <mxPoint x="520" y="480" />
              <mxPoint x="690" y="520" />
              <mxPoint x="700" y="410" />
            </Array>
            <mxPoint x="750" y="370" as="targetPoint" />
            <mxPoint as="offset" />
          </mxGeometry>
        </mxCell>
        <mxCell id="eLs_Z7yCT-JtaALUKhyU-70" value="Trả về thông báo" style="html=1;verticalAlign=bottom;endArrow=block;edgeStyle=elbowEdgeStyle;elbow=vertical;curved=0;rounded=0;" edge="1" parent="1" source="eLs_Z7yCT-JtaALUKhyU-37">
          <mxGeometry relative="1" as="geometry">
            <mxPoint x="540" y="480" as="sourcePoint" />
            <Array as="points">
              <mxPoint x="220" y="480" />
              <mxPoint x="420" y="520" />
              <mxPoint x="320" y="520" />
              <mxPoint x="490" y="560" />
              <mxPoint x="500" y="450" />
            </Array>
            <mxPoint x="140" y="480" as="targetPoint" />
            <mxPoint as="offset" />
          </mxGeometry>
        </mxCell>
        <mxCell id="eLs_Z7yCT-JtaALUKhyU-63" value="Gửi email và mật khẩu" style="html=1;verticalAlign=bottom;endArrow=block;edgeStyle=elbowEdgeStyle;elbow=vertical;curved=0;rounded=0;" edge="1" parent="1" target="eLs_Z7yCT-JtaALUKhyU-62" source="eLs_Z7yCT-JtaALUKhyU-37">
          <mxGeometry relative="1" as="geometry">
            <mxPoint x="345" y="320" as="sourcePoint" />
            <Array as="points">
              <mxPoint x="450" y="280" />
              <mxPoint x="490" y="360" />
            </Array>
          </mxGeometry>
        </mxCell>
        <mxCell id="eLs_Z7yCT-JtaALUKhyU-66" value="Gửi thông tin" style="html=1;verticalAlign=bottom;endArrow=block;edgeStyle=elbowEdgeStyle;elbow=vertical;curved=0;rounded=0;" edge="1" parent="1" target="eLs_Z7yCT-JtaALUKhyU-40" source="eLs_Z7yCT-JtaALUKhyU-38">
          <mxGeometry relative="1" as="geometry">
            <mxPoint x="545" y="360" as="sourcePoint" />
            <Array as="points">
              <mxPoint x="610" y="320" />
              <mxPoint x="580" y="280" />
              <mxPoint x="650" y="360" />
              <mxPoint x="690" y="400" />
            </Array>
            <mxPoint x="735" y="360" as="targetPoint" />
          </mxGeometry>
        </mxCell>
      </root>
    </mxGraphModel>
  </diagram>
</mxfile>
